<mxfile host="Electron" modified="2023-06-24T00:45:03.196Z" agent="Mozilla/5.0 (Macintosh; Intel Mac OS X 10_15_7) AppleWebKit/537.36 (KHTML, like Gecko) draw.io/21.5.0 Chrome/112.0.5615.204 Electron/24.5.1 Safari/537.36" etag="1fLFH5x-OL4RPLKXmCIG" version="21.5.0" type="device">
  <diagram name="Page-1" id="i9X_kWtteT4sJjgxz71z">
    <mxGraphModel dx="1311" dy="919" grid="1" gridSize="10" guides="1" tooltips="1" connect="1" arrows="1" fold="1" page="1" pageScale="1" pageWidth="2000" pageHeight="2000" math="0" shadow="0">
      <root>
        <mxCell id="0" />
        <mxCell id="1" parent="0" />
        <mxCell id="vQt1YtrmRKw6cvNU5Y5X-71" style="edgeStyle=orthogonalEdgeStyle;rounded=0;orthogonalLoop=1;jettySize=auto;html=1;entryX=0.5;entryY=-0.083;entryDx=0;entryDy=0;entryPerimeter=0;" parent="1" source="vQt1YtrmRKw6cvNU5Y5X-64" target="vQt1YtrmRKw6cvNU5Y5X-65" edge="1">
          <mxGeometry relative="1" as="geometry" />
        </mxCell>
        <mxCell id="vQt1YtrmRKw6cvNU5Y5X-64" value="total cost = ticket charges + snacks + valet" style="rounded=0;whiteSpace=wrap;html=1;" parent="1" vertex="1">
          <mxGeometry x="835" y="1399" width="260" height="36" as="geometry" />
        </mxCell>
        <mxCell id="vQt1YtrmRKw6cvNU5Y5X-72" style="edgeStyle=orthogonalEdgeStyle;rounded=0;orthogonalLoop=1;jettySize=auto;html=1;entryX=0.5;entryY=0;entryDx=0;entryDy=0;" parent="1" source="vQt1YtrmRKw6cvNU5Y5X-65" target="vQt1YtrmRKw6cvNU5Y5X-66" edge="1">
          <mxGeometry relative="1" as="geometry" />
        </mxCell>
        <mxCell id="vQt1YtrmRKw6cvNU5Y5X-65" value="PRINT TICKET CHARGES" style="rounded=0;whiteSpace=wrap;html=1;" parent="1" vertex="1">
          <mxGeometry x="875" y="1459" width="180" height="36" as="geometry" />
        </mxCell>
        <mxCell id="vQt1YtrmRKw6cvNU5Y5X-74" style="edgeStyle=orthogonalEdgeStyle;rounded=0;orthogonalLoop=1;jettySize=auto;html=1;entryX=0.5;entryY=0;entryDx=0;entryDy=0;" parent="1" source="vQt1YtrmRKw6cvNU5Y5X-66" target="vQt1YtrmRKw6cvNU5Y5X-67" edge="1">
          <mxGeometry relative="1" as="geometry" />
        </mxCell>
        <mxCell id="vQt1YtrmRKw6cvNU5Y5X-66" value="PRINT SNACK CHARGES" style="rounded=0;whiteSpace=wrap;html=1;" parent="1" vertex="1">
          <mxGeometry x="875" y="1519" width="180" height="36" as="geometry" />
        </mxCell>
        <mxCell id="vQt1YtrmRKw6cvNU5Y5X-75" style="edgeStyle=orthogonalEdgeStyle;rounded=0;orthogonalLoop=1;jettySize=auto;html=1;entryX=0.5;entryY=0;entryDx=0;entryDy=0;" parent="1" source="vQt1YtrmRKw6cvNU5Y5X-67" target="vQt1YtrmRKw6cvNU5Y5X-68" edge="1">
          <mxGeometry relative="1" as="geometry" />
        </mxCell>
        <mxCell id="vQt1YtrmRKw6cvNU5Y5X-67" value="PRINT VALET CHARGES" style="rounded=0;whiteSpace=wrap;html=1;" parent="1" vertex="1">
          <mxGeometry x="875" y="1578" width="180" height="36" as="geometry" />
        </mxCell>
        <mxCell id="vQt1YtrmRKw6cvNU5Y5X-76" style="edgeStyle=orthogonalEdgeStyle;rounded=0;orthogonalLoop=1;jettySize=auto;html=1;entryX=0.525;entryY=0.013;entryDx=0;entryDy=0;entryPerimeter=0;" parent="1" source="vQt1YtrmRKw6cvNU5Y5X-68" target="vQt1YtrmRKw6cvNU5Y5X-69" edge="1">
          <mxGeometry relative="1" as="geometry" />
        </mxCell>
        <mxCell id="vQt1YtrmRKw6cvNU5Y5X-68" value="PRINT TOTAL COST" style="rounded=0;whiteSpace=wrap;html=1;fillColor=#f5f5f5;gradientColor=#b3b3b3;strokeColor=#666666;" parent="1" vertex="1">
          <mxGeometry x="875" y="1639" width="180" height="36" as="geometry" />
        </mxCell>
        <mxCell id="vQt1YtrmRKw6cvNU5Y5X-69" value="END" style="ellipse;whiteSpace=wrap;html=1;fillColor=#f8cecc;strokeColor=#b85450;" parent="1" vertex="1">
          <mxGeometry x="869" y="1719" width="183" height="101" as="geometry" />
        </mxCell>
        <mxCell id="vQt1YtrmRKw6cvNU5Y5X-79" style="edgeStyle=orthogonalEdgeStyle;rounded=0;orthogonalLoop=1;jettySize=auto;html=1;entryX=0.5;entryY=0;entryDx=0;entryDy=0;" parent="1" source="vQt1YtrmRKw6cvNU5Y5X-78" target="vQt1YtrmRKw6cvNU5Y5X-64" edge="1">
          <mxGeometry relative="1" as="geometry" />
        </mxCell>
        <mxCell id="vQt1YtrmRKw6cvNU5Y5X-80" value="NO" style="edgeLabel;html=1;align=center;verticalAlign=middle;resizable=0;points=[];" parent="vQt1YtrmRKw6cvNU5Y5X-79" vertex="1" connectable="0">
          <mxGeometry x="-0.1736" relative="1" as="geometry">
            <mxPoint as="offset" />
          </mxGeometry>
        </mxCell>
        <mxCell id="vQt1YtrmRKw6cvNU5Y5X-81" style="edgeStyle=orthogonalEdgeStyle;rounded=0;orthogonalLoop=1;jettySize=auto;html=1;" parent="1" source="vQt1YtrmRKw6cvNU5Y5X-78" edge="1">
          <mxGeometry relative="1" as="geometry">
            <mxPoint x="975" y="240" as="targetPoint" />
            <Array as="points">
              <mxPoint x="1915" y="1265" />
              <mxPoint x="1915" y="240" />
            </Array>
          </mxGeometry>
        </mxCell>
        <mxCell id="vQt1YtrmRKw6cvNU5Y5X-82" value="YES" style="edgeLabel;html=1;align=center;verticalAlign=middle;resizable=0;points=[];" parent="vQt1YtrmRKw6cvNU5Y5X-81" vertex="1" connectable="0">
          <mxGeometry x="-0.985" y="1" relative="1" as="geometry">
            <mxPoint as="offset" />
          </mxGeometry>
        </mxCell>
        <mxCell id="vQt1YtrmRKw6cvNU5Y5X-78" value="&lt;font style=&quot;font-size: 10px;&quot;&gt;WOULD LIKE TO ADD ANYTHING ELSE?&lt;br&gt;(BACK MAIN MANU)&lt;br&gt;&lt;/font&gt;" style="rhombus;whiteSpace=wrap;html=1;fillColor=#f8cecc;gradientColor=#ea6b66;strokeColor=#b85450;" parent="1" vertex="1">
          <mxGeometry x="890" y="1191" width="150" height="148" as="geometry" />
        </mxCell>
        <mxCell id="9lHVH5dm3nrvYFQcM8Wy-2" value="START" style="ellipse;whiteSpace=wrap;html=1;fillColor=#d5e8d4;strokeColor=#82b366;" parent="1" vertex="1">
          <mxGeometry x="895" y="10" width="150" height="94" as="geometry" />
        </mxCell>
        <mxCell id="9lHVH5dm3nrvYFQcM8Wy-17" style="edgeStyle=orthogonalEdgeStyle;rounded=0;orthogonalLoop=1;jettySize=auto;html=1;entryX=0.468;entryY=0;entryDx=0;entryDy=0;entryPerimeter=0;" parent="1" source="9lHVH5dm3nrvYFQcM8Wy-2" target="9lHVH5dm3nrvYFQcM8Wy-3" edge="1">
          <mxGeometry relative="1" as="geometry" />
        </mxCell>
        <mxCell id="piu1KmxuBdeIRfrjEBOE-89" value="" style="group" parent="1" vertex="1" connectable="0">
          <mxGeometry x="56.74" y="400" width="690.26" height="780" as="geometry" />
        </mxCell>
        <mxCell id="piu1KmxuBdeIRfrjEBOE-55" style="edgeStyle=orthogonalEdgeStyle;rounded=0;orthogonalLoop=1;jettySize=auto;html=1;" parent="piu1KmxuBdeIRfrjEBOE-89" source="piu1KmxuBdeIRfrjEBOE-11" edge="1">
          <mxGeometry relative="1" as="geometry">
            <mxPoint x="60" y="361" as="targetPoint" />
          </mxGeometry>
        </mxCell>
        <mxCell id="piu1KmxuBdeIRfrjEBOE-58" value="&lt;font style=&quot;font-size: 8px;&quot;&gt;MATINEE&lt;/font&gt;" style="edgeLabel;html=1;align=center;verticalAlign=middle;resizable=0;points=[];" parent="piu1KmxuBdeIRfrjEBOE-55" vertex="1" connectable="0">
          <mxGeometry x="-0.5905" y="1" relative="1" as="geometry">
            <mxPoint as="offset" />
          </mxGeometry>
        </mxCell>
        <mxCell id="piu1KmxuBdeIRfrjEBOE-56" style="edgeStyle=orthogonalEdgeStyle;rounded=0;orthogonalLoop=1;jettySize=auto;html=1;" parent="piu1KmxuBdeIRfrjEBOE-89" source="piu1KmxuBdeIRfrjEBOE-11" edge="1">
          <mxGeometry relative="1" as="geometry">
            <mxPoint x="250" y="361" as="targetPoint" />
          </mxGeometry>
        </mxCell>
        <mxCell id="piu1KmxuBdeIRfrjEBOE-60" value="&lt;font style=&quot;font-size: 8px;&quot;&gt;EVENING&lt;/font&gt;" style="edgeLabel;html=1;align=center;verticalAlign=middle;resizable=0;points=[];" parent="piu1KmxuBdeIRfrjEBOE-56" vertex="1" connectable="0">
          <mxGeometry x="-0.5673" relative="1" as="geometry">
            <mxPoint as="offset" />
          </mxGeometry>
        </mxCell>
        <mxCell id="piu1KmxuBdeIRfrjEBOE-11" value="&lt;span style=&quot;font-size: 8px;&quot;&gt;MATINÉE OR EVENING?&lt;/span&gt;" style="rhombus;whiteSpace=wrap;html=1;" parent="piu1KmxuBdeIRfrjEBOE-89" vertex="1">
          <mxGeometry x="120" y="261" width="80" height="80" as="geometry" />
        </mxCell>
        <mxCell id="piu1KmxuBdeIRfrjEBOE-45" style="edgeStyle=orthogonalEdgeStyle;rounded=0;orthogonalLoop=1;jettySize=auto;html=1;" parent="piu1KmxuBdeIRfrjEBOE-89" source="piu1KmxuBdeIRfrjEBOE-13" edge="1">
          <mxGeometry relative="1" as="geometry">
            <mxPoint x="440" y="181" as="targetPoint" />
          </mxGeometry>
        </mxCell>
        <mxCell id="piu1KmxuBdeIRfrjEBOE-48" value="VIP" style="edgeLabel;html=1;align=center;verticalAlign=middle;resizable=0;points=[];" parent="piu1KmxuBdeIRfrjEBOE-45" vertex="1" connectable="0">
          <mxGeometry x="-0.5299" y="-2" relative="1" as="geometry">
            <mxPoint as="offset" />
          </mxGeometry>
        </mxCell>
        <mxCell id="piu1KmxuBdeIRfrjEBOE-46" style="edgeStyle=orthogonalEdgeStyle;rounded=0;orthogonalLoop=1;jettySize=auto;html=1;" parent="piu1KmxuBdeIRfrjEBOE-89" source="piu1KmxuBdeIRfrjEBOE-13" edge="1">
          <mxGeometry relative="1" as="geometry">
            <mxPoint x="240" y="181" as="targetPoint" />
          </mxGeometry>
        </mxCell>
        <mxCell id="piu1KmxuBdeIRfrjEBOE-47" value="STD" style="edgeLabel;html=1;align=center;verticalAlign=middle;resizable=0;points=[];" parent="piu1KmxuBdeIRfrjEBOE-46" vertex="1" connectable="0">
          <mxGeometry x="-0.3311" relative="1" as="geometry">
            <mxPoint as="offset" />
          </mxGeometry>
        </mxCell>
        <mxCell id="piu1KmxuBdeIRfrjEBOE-13" value="&lt;span style=&quot;font-size: 10px;&quot;&gt;INPUT TYPE (STANDARD, VIP)&lt;/span&gt;" style="rounded=0;whiteSpace=wrap;html=1;" parent="piu1KmxuBdeIRfrjEBOE-89" vertex="1">
          <mxGeometry x="281.90999999999985" y="115" width="113" height="50" as="geometry" />
        </mxCell>
        <mxCell id="piu1KmxuBdeIRfrjEBOE-35" style="edgeStyle=orthogonalEdgeStyle;rounded=0;orthogonalLoop=1;jettySize=auto;html=1;entryX=0.487;entryY=0;entryDx=0;entryDy=0;entryPerimeter=0;" parent="piu1KmxuBdeIRfrjEBOE-89" source="piu1KmxuBdeIRfrjEBOE-37" target="piu1KmxuBdeIRfrjEBOE-13" edge="1">
          <mxGeometry relative="1" as="geometry">
            <Array as="points">
              <mxPoint x="336.9100000000001" y="100" />
            </Array>
          </mxGeometry>
        </mxCell>
        <mxCell id="piu1KmxuBdeIRfrjEBOE-36" value="YES" style="edgeLabel;html=1;align=center;verticalAlign=middle;resizable=0;points=[];" parent="piu1KmxuBdeIRfrjEBOE-35" vertex="1" connectable="0">
          <mxGeometry x="-0.3196" relative="1" as="geometry">
            <mxPoint as="offset" />
          </mxGeometry>
        </mxCell>
        <mxCell id="piu1KmxuBdeIRfrjEBOE-37" value="&lt;span style=&quot;font-size: 8px;&quot;&gt;VALET&lt;/span&gt;" style="rhombus;whiteSpace=wrap;html=1;container=0;fillColor=#f8cecc;strokeColor=#b85450;gradientColor=#ea6b66;" parent="piu1KmxuBdeIRfrjEBOE-89" vertex="1">
          <mxGeometry x="296.9100000000001" width="80" height="80" as="geometry" />
        </mxCell>
        <mxCell id="vQt1YtrmRKw6cvNU5Y5X-85" style="edgeStyle=orthogonalEdgeStyle;rounded=0;orthogonalLoop=1;jettySize=auto;html=1;entryX=0;entryY=0.5;entryDx=0;entryDy=0;" parent="piu1KmxuBdeIRfrjEBOE-89" source="piu1KmxuBdeIRfrjEBOE-41" target="piu1KmxuBdeIRfrjEBOE-82" edge="1">
          <mxGeometry relative="1" as="geometry">
            <mxPoint x="293.26" y="770" as="targetPoint" />
            <Array as="points">
              <mxPoint x="-17" y="40" />
              <mxPoint x="-17" y="760" />
            </Array>
          </mxGeometry>
        </mxCell>
        <mxCell id="piu1KmxuBdeIRfrjEBOE-41" value="&lt;font style=&quot;font-size: 10px;&quot;&gt;valet = 0&lt;/font&gt;" style="rounded=0;whiteSpace=wrap;html=1;" parent="piu1KmxuBdeIRfrjEBOE-89" vertex="1">
          <mxGeometry x="143.00000000000006" y="25.5" width="118" height="29" as="geometry" />
        </mxCell>
        <mxCell id="piu1KmxuBdeIRfrjEBOE-67" style="edgeStyle=orthogonalEdgeStyle;rounded=0;orthogonalLoop=1;jettySize=auto;html=1;entryX=0.5;entryY=0;entryDx=0;entryDy=0;" parent="piu1KmxuBdeIRfrjEBOE-89" source="piu1KmxuBdeIRfrjEBOE-43" target="piu1KmxuBdeIRfrjEBOE-11" edge="1">
          <mxGeometry relative="1" as="geometry" />
        </mxCell>
        <mxCell id="piu1KmxuBdeIRfrjEBOE-43" value="&lt;font style=&quot;font-size: 10px;&quot;&gt;INPUT TIME PERIOD&lt;/font&gt;" style="rounded=0;whiteSpace=wrap;html=1;" parent="piu1KmxuBdeIRfrjEBOE-89" vertex="1">
          <mxGeometry x="208" y="191" width="120" height="40" as="geometry" />
        </mxCell>
        <mxCell id="piu1KmxuBdeIRfrjEBOE-44" value="&lt;font style=&quot;font-size: 10px;&quot;&gt;INPUT TIME PERIOD&lt;/font&gt;" style="rounded=0;whiteSpace=wrap;html=1;" parent="piu1KmxuBdeIRfrjEBOE-89" vertex="1">
          <mxGeometry x="360" y="191" width="120" height="40" as="geometry" />
        </mxCell>
        <mxCell id="piu1KmxuBdeIRfrjEBOE-50" value="&lt;span style=&quot;font-size: 8px;&quot;&gt;MATINÉE OR EVENING?&lt;/span&gt;" style="rhombus;whiteSpace=wrap;html=1;" parent="piu1KmxuBdeIRfrjEBOE-89" vertex="1">
          <mxGeometry x="490" y="261" width="80" height="80" as="geometry" />
        </mxCell>
        <mxCell id="piu1KmxuBdeIRfrjEBOE-52" style="edgeStyle=orthogonalEdgeStyle;rounded=0;orthogonalLoop=1;jettySize=auto;html=1;entryX=0.5;entryY=0;entryDx=0;entryDy=0;" parent="piu1KmxuBdeIRfrjEBOE-89" source="piu1KmxuBdeIRfrjEBOE-44" target="piu1KmxuBdeIRfrjEBOE-50" edge="1">
          <mxGeometry relative="1" as="geometry" />
        </mxCell>
        <mxCell id="piu1KmxuBdeIRfrjEBOE-53" value="&lt;span style=&quot;font-size: 10px;&quot;&gt;VALET FEE: $ 10.00&lt;br&gt;&lt;/span&gt;" style="rounded=1;whiteSpace=wrap;html=1;" parent="piu1KmxuBdeIRfrjEBOE-89" vertex="1">
          <mxGeometry y="361" width="120" height="30" as="geometry" />
        </mxCell>
        <mxCell id="piu1KmxuBdeIRfrjEBOE-54" value="&lt;span style=&quot;font-size: 10px;&quot;&gt;VALET FEE: $ 15.00&lt;br&gt;&lt;/span&gt;" style="rounded=1;whiteSpace=wrap;html=1;" parent="piu1KmxuBdeIRfrjEBOE-89" vertex="1">
          <mxGeometry x="190" y="361" width="120" height="30" as="geometry" />
        </mxCell>
        <mxCell id="piu1KmxuBdeIRfrjEBOE-61" value="&lt;span style=&quot;font-size: 10px;&quot;&gt;VALET FEE: $ 20.00&lt;br&gt;&lt;/span&gt;" style="rounded=1;whiteSpace=wrap;html=1;" parent="piu1KmxuBdeIRfrjEBOE-89" vertex="1">
          <mxGeometry x="370" y="361" width="120" height="30" as="geometry" />
        </mxCell>
        <mxCell id="piu1KmxuBdeIRfrjEBOE-62" value="&lt;span style=&quot;font-size: 10px;&quot;&gt;VALET FEE: $ 30.00&lt;br&gt;&lt;/span&gt;" style="rounded=1;whiteSpace=wrap;html=1;" parent="piu1KmxuBdeIRfrjEBOE-89" vertex="1">
          <mxGeometry x="560" y="361" width="120" height="30" as="geometry" />
        </mxCell>
        <mxCell id="piu1KmxuBdeIRfrjEBOE-63" style="edgeStyle=orthogonalEdgeStyle;rounded=0;orthogonalLoop=1;jettySize=auto;html=1;" parent="piu1KmxuBdeIRfrjEBOE-89" edge="1">
          <mxGeometry relative="1" as="geometry">
            <mxPoint x="620" y="361" as="targetPoint" />
            <mxPoint x="570" y="301" as="sourcePoint" />
          </mxGeometry>
        </mxCell>
        <mxCell id="piu1KmxuBdeIRfrjEBOE-64" value="&lt;font style=&quot;font-size: 8px;&quot;&gt;EVENING&lt;/font&gt;" style="edgeLabel;html=1;align=center;verticalAlign=middle;resizable=0;points=[];" parent="piu1KmxuBdeIRfrjEBOE-63" vertex="1" connectable="0">
          <mxGeometry x="-0.5673" relative="1" as="geometry">
            <mxPoint as="offset" />
          </mxGeometry>
        </mxCell>
        <mxCell id="piu1KmxuBdeIRfrjEBOE-65" style="edgeStyle=orthogonalEdgeStyle;rounded=0;orthogonalLoop=1;jettySize=auto;html=1;" parent="piu1KmxuBdeIRfrjEBOE-89" edge="1">
          <mxGeometry relative="1" as="geometry">
            <mxPoint x="430" y="361" as="targetPoint" />
            <mxPoint x="490" y="301" as="sourcePoint" />
          </mxGeometry>
        </mxCell>
        <mxCell id="piu1KmxuBdeIRfrjEBOE-66" value="&lt;font style=&quot;font-size: 8px;&quot;&gt;MATINEE&lt;/font&gt;" style="edgeLabel;html=1;align=center;verticalAlign=middle;resizable=0;points=[];" parent="piu1KmxuBdeIRfrjEBOE-65" vertex="1" connectable="0">
          <mxGeometry x="-0.5905" y="1" relative="1" as="geometry">
            <mxPoint as="offset" />
          </mxGeometry>
        </mxCell>
        <mxCell id="piu1KmxuBdeIRfrjEBOE-68" value="&lt;font style=&quot;font-size: 10px;&quot;&gt;DISPLAY VALET CHARGES&lt;/font&gt;" style="rounded=0;whiteSpace=wrap;html=1;" parent="piu1KmxuBdeIRfrjEBOE-89" vertex="1">
          <mxGeometry x="281.9100000000001" y="430" width="148.09" height="40" as="geometry" />
        </mxCell>
        <mxCell id="piu1KmxuBdeIRfrjEBOE-69" style="edgeStyle=orthogonalEdgeStyle;rounded=0;orthogonalLoop=1;jettySize=auto;html=1;entryX=0;entryY=0.5;entryDx=0;entryDy=0;" parent="piu1KmxuBdeIRfrjEBOE-89" source="piu1KmxuBdeIRfrjEBOE-53" target="piu1KmxuBdeIRfrjEBOE-68" edge="1">
          <mxGeometry relative="1" as="geometry">
            <Array as="points">
              <mxPoint x="60" y="450" />
            </Array>
          </mxGeometry>
        </mxCell>
        <mxCell id="piu1KmxuBdeIRfrjEBOE-70" style="edgeStyle=orthogonalEdgeStyle;rounded=0;orthogonalLoop=1;jettySize=auto;html=1;entryX=0.224;entryY=-0.075;entryDx=0;entryDy=0;entryPerimeter=0;" parent="piu1KmxuBdeIRfrjEBOE-89" source="piu1KmxuBdeIRfrjEBOE-54" target="piu1KmxuBdeIRfrjEBOE-68" edge="1">
          <mxGeometry relative="1" as="geometry" />
        </mxCell>
        <mxCell id="piu1KmxuBdeIRfrjEBOE-71" style="edgeStyle=orthogonalEdgeStyle;rounded=0;orthogonalLoop=1;jettySize=auto;html=1;entryX=0.722;entryY=-0.109;entryDx=0;entryDy=0;entryPerimeter=0;" parent="piu1KmxuBdeIRfrjEBOE-89" source="piu1KmxuBdeIRfrjEBOE-61" target="piu1KmxuBdeIRfrjEBOE-68" edge="1">
          <mxGeometry relative="1" as="geometry" />
        </mxCell>
        <mxCell id="piu1KmxuBdeIRfrjEBOE-72" style="edgeStyle=orthogonalEdgeStyle;rounded=0;orthogonalLoop=1;jettySize=auto;html=1;entryX=1;entryY=0.5;entryDx=0;entryDy=0;" parent="piu1KmxuBdeIRfrjEBOE-89" source="piu1KmxuBdeIRfrjEBOE-62" target="piu1KmxuBdeIRfrjEBOE-68" edge="1">
          <mxGeometry relative="1" as="geometry">
            <Array as="points">
              <mxPoint x="620" y="450" />
            </Array>
          </mxGeometry>
        </mxCell>
        <mxCell id="piu1KmxuBdeIRfrjEBOE-85" style="edgeStyle=orthogonalEdgeStyle;rounded=0;orthogonalLoop=1;jettySize=auto;html=1;" parent="piu1KmxuBdeIRfrjEBOE-89" source="piu1KmxuBdeIRfrjEBOE-73" edge="1">
          <mxGeometry relative="1" as="geometry">
            <mxPoint x="420" y="750" as="targetPoint" />
            <Array as="points">
              <mxPoint x="430" y="540" />
              <mxPoint x="430" y="750" />
              <mxPoint x="420" y="750" />
            </Array>
          </mxGeometry>
        </mxCell>
        <mxCell id="piu1KmxuBdeIRfrjEBOE-86" value="NO" style="edgeLabel;html=1;align=center;verticalAlign=middle;resizable=0;points=[];" parent="piu1KmxuBdeIRfrjEBOE-85" vertex="1" connectable="0">
          <mxGeometry x="-0.8792" y="1" relative="1" as="geometry">
            <mxPoint as="offset" />
          </mxGeometry>
        </mxCell>
        <mxCell id="piu1KmxuBdeIRfrjEBOE-73" value="&lt;span style=&quot;font-size: 8px;&quot;&gt;ADD TIP?&lt;/span&gt;" style="rhombus;whiteSpace=wrap;html=1;fillColor=#f8cecc;gradientColor=#ea6b66;strokeColor=#b85450;" parent="piu1KmxuBdeIRfrjEBOE-89" vertex="1">
          <mxGeometry x="316.9100000000001" y="500" width="80" height="80" as="geometry" />
        </mxCell>
        <mxCell id="piu1KmxuBdeIRfrjEBOE-77" style="edgeStyle=orthogonalEdgeStyle;rounded=0;orthogonalLoop=1;jettySize=auto;html=1;entryX=0.49;entryY=-0.016;entryDx=0;entryDy=0;entryPerimeter=0;" parent="piu1KmxuBdeIRfrjEBOE-89" source="piu1KmxuBdeIRfrjEBOE-68" target="piu1KmxuBdeIRfrjEBOE-73" edge="1">
          <mxGeometry relative="1" as="geometry" />
        </mxCell>
        <mxCell id="piu1KmxuBdeIRfrjEBOE-74" value="&lt;font style=&quot;font-size: 10px;&quot;&gt;INPUT TIP AMOUNT&lt;/font&gt;" style="rounded=0;whiteSpace=wrap;html=1;" parent="piu1KmxuBdeIRfrjEBOE-89" vertex="1">
          <mxGeometry x="295.96000000000004" y="620" width="120" height="40" as="geometry" />
        </mxCell>
        <mxCell id="piu1KmxuBdeIRfrjEBOE-78" style="edgeStyle=orthogonalEdgeStyle;rounded=0;orthogonalLoop=1;jettySize=auto;html=1;entryX=0.5;entryY=0;entryDx=0;entryDy=0;" parent="piu1KmxuBdeIRfrjEBOE-89" source="piu1KmxuBdeIRfrjEBOE-73" target="piu1KmxuBdeIRfrjEBOE-74" edge="1">
          <mxGeometry relative="1" as="geometry" />
        </mxCell>
        <mxCell id="piu1KmxuBdeIRfrjEBOE-84" value="YES" style="edgeLabel;html=1;align=center;verticalAlign=middle;resizable=0;points=[];" parent="piu1KmxuBdeIRfrjEBOE-78" vertex="1" connectable="0">
          <mxGeometry x="-0.2296" relative="1" as="geometry">
            <mxPoint as="offset" />
          </mxGeometry>
        </mxCell>
        <mxCell id="piu1KmxuBdeIRfrjEBOE-75" value="&lt;font style=&quot;font-size: 10px;&quot;&gt;VP = VP + TIP&lt;/font&gt;" style="rounded=0;whiteSpace=wrap;html=1;" parent="piu1KmxuBdeIRfrjEBOE-89" vertex="1">
          <mxGeometry x="295.96000000000004" y="690" width="120" height="20" as="geometry" />
        </mxCell>
        <mxCell id="piu1KmxuBdeIRfrjEBOE-80" style="edgeStyle=orthogonalEdgeStyle;rounded=0;orthogonalLoop=1;jettySize=auto;html=1;entryX=0.5;entryY=0;entryDx=0;entryDy=0;" parent="piu1KmxuBdeIRfrjEBOE-89" source="piu1KmxuBdeIRfrjEBOE-74" target="piu1KmxuBdeIRfrjEBOE-75" edge="1">
          <mxGeometry relative="1" as="geometry" />
        </mxCell>
        <mxCell id="piu1KmxuBdeIRfrjEBOE-82" value="&lt;font style=&quot;font-size: 10px;&quot;&gt;DISPLAY VALET TOTAL&lt;/font&gt;" style="rounded=0;whiteSpace=wrap;html=1;" parent="piu1KmxuBdeIRfrjEBOE-89" vertex="1">
          <mxGeometry x="296.9100000000001" y="740" width="120" height="40" as="geometry" />
        </mxCell>
        <mxCell id="piu1KmxuBdeIRfrjEBOE-83" style="edgeStyle=orthogonalEdgeStyle;rounded=0;orthogonalLoop=1;jettySize=auto;html=1;entryX=0.5;entryY=0;entryDx=0;entryDy=0;" parent="piu1KmxuBdeIRfrjEBOE-89" source="piu1KmxuBdeIRfrjEBOE-75" target="piu1KmxuBdeIRfrjEBOE-82" edge="1">
          <mxGeometry relative="1" as="geometry" />
        </mxCell>
        <mxCell id="piu1KmxuBdeIRfrjEBOE-33" style="edgeStyle=orthogonalEdgeStyle;rounded=0;orthogonalLoop=1;jettySize=auto;html=1;" parent="piu1KmxuBdeIRfrjEBOE-89" edge="1">
          <mxGeometry relative="1" as="geometry">
            <mxPoint x="260.96" y="39.79000000000002" as="targetPoint" />
            <mxPoint x="295.9600000000001" y="39.79000000000002" as="sourcePoint" />
          </mxGeometry>
        </mxCell>
        <mxCell id="piu1KmxuBdeIRfrjEBOE-34" value="NO" style="edgeLabel;html=1;align=center;verticalAlign=middle;resizable=0;points=[];" parent="piu1KmxuBdeIRfrjEBOE-33" vertex="1" connectable="0">
          <mxGeometry x="-0.4359" y="1" relative="1" as="geometry">
            <mxPoint as="offset" />
          </mxGeometry>
        </mxCell>
        <mxCell id="9lHVH5dm3nrvYFQcM8Wy-18" style="edgeStyle=orthogonalEdgeStyle;rounded=0;orthogonalLoop=1;jettySize=auto;html=1;entryX=0.5;entryY=0;entryDx=0;entryDy=0;" parent="1" edge="1">
          <mxGeometry relative="1" as="geometry">
            <mxPoint x="970" y="160" as="sourcePoint" />
            <mxPoint x="970" y="180" as="targetPoint" />
          </mxGeometry>
        </mxCell>
        <mxCell id="9lHVH5dm3nrvYFQcM8Wy-3" value="&lt;font style=&quot;font-size: 10px;&quot;&gt;A LA CART ENTERTAINMENT ORDERING SYSTEM&lt;/font&gt;" style="rounded=1;whiteSpace=wrap;html=1;fillColor=#fff2cc;strokeColor=#d6b656;" parent="1" vertex="1">
          <mxGeometry x="825" y="130" width="310" height="30" as="geometry" />
        </mxCell>
        <mxCell id="vQt1YtrmRKw6cvNU5Y5X-77" style="edgeStyle=orthogonalEdgeStyle;rounded=0;orthogonalLoop=1;jettySize=auto;html=1;" parent="1" edge="1">
          <mxGeometry relative="1" as="geometry">
            <mxPoint x="972" y="266" as="targetPoint" />
            <mxPoint x="972.0344827586207" y="210" as="sourcePoint" />
          </mxGeometry>
        </mxCell>
        <mxCell id="9lHVH5dm3nrvYFQcM8Wy-4" value="&lt;font style=&quot;font-size: 10px;&quot;&gt;SYSTEM MAIN DIRECTORY&lt;/font&gt;" style="rounded=1;whiteSpace=wrap;html=1;fillColor=#d5e8d4;strokeColor=#82b366;" parent="1" vertex="1">
          <mxGeometry x="825" y="180" width="310" height="30" as="geometry" />
        </mxCell>
        <mxCell id="YDbfQsRCEKIfb_wyseGa-1" style="edgeStyle=orthogonalEdgeStyle;rounded=0;orthogonalLoop=1;jettySize=auto;html=1;" parent="1" source="9lHVH5dm3nrvYFQcM8Wy-5" edge="1">
          <mxGeometry relative="1" as="geometry">
            <mxPoint x="1535" y="386" as="targetPoint" />
          </mxGeometry>
        </mxCell>
        <mxCell id="YDbfQsRCEKIfb_wyseGa-2" value="PROGRAM SYSTEM" style="edgeLabel;html=1;align=center;verticalAlign=middle;resizable=0;points=[];" parent="YDbfQsRCEKIfb_wyseGa-1" vertex="1" connectable="0">
          <mxGeometry x="-0.3363" y="3" relative="1" as="geometry">
            <mxPoint as="offset" />
          </mxGeometry>
        </mxCell>
        <mxCell id="vQt1YtrmRKw6cvNU5Y5X-57" style="edgeStyle=orthogonalEdgeStyle;rounded=0;orthogonalLoop=1;jettySize=auto;html=1;entryX=0.531;entryY=-0.048;entryDx=0;entryDy=0;entryPerimeter=0;" parent="1" source="9lHVH5dm3nrvYFQcM8Wy-5" target="piu1KmxuBdeIRfrjEBOE-37" edge="1">
          <mxGeometry relative="1" as="geometry">
            <mxPoint x="415" y="385.9999999999998" as="targetPoint" />
            <Array as="points">
              <mxPoint x="396" y="307" />
            </Array>
          </mxGeometry>
        </mxCell>
        <mxCell id="vQt1YtrmRKw6cvNU5Y5X-58" value="VALET SYSTEM" style="edgeLabel;html=1;align=center;verticalAlign=middle;resizable=0;points=[];" parent="vQt1YtrmRKw6cvNU5Y5X-57" vertex="1" connectable="0">
          <mxGeometry x="-0.0979" y="2" relative="1" as="geometry">
            <mxPoint as="offset" />
          </mxGeometry>
        </mxCell>
        <mxCell id="9lHVH5dm3nrvYFQcM8Wy-5" value="INPUT:&lt;br&gt;&lt;font style=&quot;font-size: 10px;&quot;&gt;PROGRAM, VALET OR SNACK SYSTEM&lt;/font&gt;" style="rhombus;whiteSpace=wrap;html=1;fillColor=#dae8fc;strokeColor=#6c8ebf;" parent="1" vertex="1">
          <mxGeometry x="887" y="267" width="170" height="80" as="geometry" />
        </mxCell>
        <mxCell id="9lHVH5dm3nrvYFQcM8Wy-6" value="&lt;span style=&quot;font-size: 8px;&quot;&gt;SNACK&lt;/span&gt;" style="rhombus;whiteSpace=wrap;html=1;" parent="1" vertex="1">
          <mxGeometry x="933.5" y="572" width="80" height="80" as="geometry" />
        </mxCell>
        <mxCell id="9lHVH5dm3nrvYFQcM8Wy-21" style="edgeStyle=orthogonalEdgeStyle;rounded=0;orthogonalLoop=1;jettySize=auto;html=1;" parent="1" source="9lHVH5dm3nrvYFQcM8Wy-7" edge="1">
          <mxGeometry relative="1" as="geometry">
            <mxPoint x="973.5" y="572" as="targetPoint" />
          </mxGeometry>
        </mxCell>
        <mxCell id="9lHVH5dm3nrvYFQcM8Wy-7" value="&lt;font style=&quot;font-size: 10px;&quot;&gt;SNACKS TYPE AND AMOUNT&lt;/font&gt;" style="rounded=0;whiteSpace=wrap;html=1;" parent="1" vertex="1">
          <mxGeometry x="917" y="502" width="113" height="50" as="geometry" />
        </mxCell>
        <mxCell id="9lHVH5dm3nrvYFQcM8Wy-8" value="&lt;font style=&quot;font-size: 10px;&quot;&gt;NON-ALCOHOLIC BEVERAGES ($2.25)&lt;/font&gt;" style="rounded=0;whiteSpace=wrap;html=1;" parent="1" vertex="1">
          <mxGeometry x="765" y="672" width="120" height="40" as="geometry" />
        </mxCell>
        <mxCell id="9lHVH5dm3nrvYFQcM8Wy-22" style="edgeStyle=orthogonalEdgeStyle;rounded=0;orthogonalLoop=1;jettySize=auto;html=1;entryX=0.489;entryY=-0.086;entryDx=0;entryDy=0;entryPerimeter=0;" parent="1" source="9lHVH5dm3nrvYFQcM8Wy-6" target="9lHVH5dm3nrvYFQcM8Wy-8" edge="1">
          <mxGeometry relative="1" as="geometry" />
        </mxCell>
        <mxCell id="9lHVH5dm3nrvYFQcM8Wy-25" style="edgeStyle=orthogonalEdgeStyle;rounded=0;orthogonalLoop=1;jettySize=auto;html=1;entryX=0.5;entryY=-0.062;entryDx=0;entryDy=0;entryPerimeter=0;" parent="1" edge="1">
          <mxGeometry relative="1" as="geometry">
            <mxPoint x="973" y="713" as="sourcePoint" />
            <mxPoint x="973" y="739.28" as="targetPoint" />
          </mxGeometry>
        </mxCell>
        <mxCell id="9lHVH5dm3nrvYFQcM8Wy-9" value="&lt;font style=&quot;font-size: 10px;&quot;&gt;ALCOHOLIC BEVERAGES ($7.50)&lt;/font&gt;" style="rounded=0;whiteSpace=wrap;html=1;" parent="1" vertex="1">
          <mxGeometry x="910" y="672" width="120" height="40" as="geometry" />
        </mxCell>
        <mxCell id="9lHVH5dm3nrvYFQcM8Wy-23" style="edgeStyle=orthogonalEdgeStyle;rounded=0;orthogonalLoop=1;jettySize=auto;html=1;entryX=0.529;entryY=-0.1;entryDx=0;entryDy=0;entryPerimeter=0;" parent="1" source="9lHVH5dm3nrvYFQcM8Wy-6" target="9lHVH5dm3nrvYFQcM8Wy-9" edge="1">
          <mxGeometry relative="1" as="geometry" />
        </mxCell>
        <mxCell id="9lHVH5dm3nrvYFQcM8Wy-10" value="&lt;font style=&quot;font-size: 10px;&quot;&gt;MSIC CANDY ITEMS ($1.75)&lt;br&gt;&lt;/font&gt;" style="rounded=0;whiteSpace=wrap;html=1;" parent="1" vertex="1">
          <mxGeometry x="1055" y="672" width="120" height="40" as="geometry" />
        </mxCell>
        <mxCell id="9lHVH5dm3nrvYFQcM8Wy-24" style="edgeStyle=orthogonalEdgeStyle;rounded=0;orthogonalLoop=1;jettySize=auto;html=1;entryX=0.496;entryY=-0.1;entryDx=0;entryDy=0;entryPerimeter=0;" parent="1" source="9lHVH5dm3nrvYFQcM8Wy-6" target="9lHVH5dm3nrvYFQcM8Wy-10" edge="1">
          <mxGeometry relative="1" as="geometry" />
        </mxCell>
        <mxCell id="9lHVH5dm3nrvYFQcM8Wy-36" style="edgeStyle=orthogonalEdgeStyle;rounded=0;orthogonalLoop=1;jettySize=auto;html=1;" parent="1" source="9lHVH5dm3nrvYFQcM8Wy-11" edge="1">
          <mxGeometry relative="1" as="geometry">
            <mxPoint x="971" y="822" as="targetPoint" />
          </mxGeometry>
        </mxCell>
        <mxCell id="9lHVH5dm3nrvYFQcM8Wy-11" value="&lt;font style=&quot;font-size: 10px;&quot;&gt;TOTAL SNACK = sum (per snack fee*amount)&lt;/font&gt;" style="rounded=1;whiteSpace=wrap;html=1;" parent="1" vertex="1">
          <mxGeometry x="911" y="740" width="120" height="60" as="geometry" />
        </mxCell>
        <mxCell id="9lHVH5dm3nrvYFQcM8Wy-38" style="edgeStyle=orthogonalEdgeStyle;rounded=0;orthogonalLoop=1;jettySize=auto;html=1;" parent="1" source="9lHVH5dm3nrvYFQcM8Wy-12" edge="1">
          <mxGeometry relative="1" as="geometry">
            <mxPoint x="915" y="522" as="targetPoint" />
            <Array as="points">
              <mxPoint x="755" y="862" />
              <mxPoint x="755" y="522" />
              <mxPoint x="915" y="522" />
            </Array>
          </mxGeometry>
        </mxCell>
        <mxCell id="9lHVH5dm3nrvYFQcM8Wy-59" value="YES" style="edgeLabel;html=1;align=center;verticalAlign=middle;resizable=0;points=[];" parent="9lHVH5dm3nrvYFQcM8Wy-38" vertex="1" connectable="0">
          <mxGeometry x="-0.9241" y="1" relative="1" as="geometry">
            <mxPoint as="offset" />
          </mxGeometry>
        </mxCell>
        <mxCell id="9lHVH5dm3nrvYFQcM8Wy-12" value="&lt;span style=&quot;font-size: 8px;&quot;&gt;MORE SNACK?&lt;/span&gt;" style="rhombus;whiteSpace=wrap;html=1;fillColor=#f8cecc;gradientColor=#ea6b66;strokeColor=#b85450;" parent="1" vertex="1">
          <mxGeometry x="931" y="822" width="80" height="80" as="geometry" />
        </mxCell>
        <mxCell id="vQt1YtrmRKw6cvNU5Y5X-60" style="edgeStyle=orthogonalEdgeStyle;rounded=0;orthogonalLoop=1;jettySize=auto;html=1;" parent="1" source="9lHVH5dm3nrvYFQcM8Wy-13" edge="1">
          <mxGeometry relative="1" as="geometry">
            <mxPoint x="971.5" y="1046" as="targetPoint" />
          </mxGeometry>
        </mxCell>
        <mxCell id="9lHVH5dm3nrvYFQcM8Wy-13" value="&lt;font style=&quot;font-size: 10px;&quot;&gt;DISPLAY SNACK CHARGES&lt;/font&gt;" style="rounded=1;whiteSpace=wrap;html=1;" parent="1" vertex="1">
          <mxGeometry x="899" y="945" width="145" height="30" as="geometry" />
        </mxCell>
        <mxCell id="9lHVH5dm3nrvYFQcM8Wy-40" style="edgeStyle=orthogonalEdgeStyle;rounded=0;orthogonalLoop=1;jettySize=auto;html=1;" parent="1" source="9lHVH5dm3nrvYFQcM8Wy-12" target="9lHVH5dm3nrvYFQcM8Wy-13" edge="1">
          <mxGeometry relative="1" as="geometry" />
        </mxCell>
        <mxCell id="9lHVH5dm3nrvYFQcM8Wy-60" value="NO" style="edgeLabel;html=1;align=center;verticalAlign=middle;resizable=0;points=[];" parent="9lHVH5dm3nrvYFQcM8Wy-40" vertex="1" connectable="0">
          <mxGeometry x="-0.318" y="-1" relative="1" as="geometry">
            <mxPoint as="offset" />
          </mxGeometry>
        </mxCell>
        <mxCell id="9lHVH5dm3nrvYFQcM8Wy-30" value="" style="endArrow=none;html=1;rounded=0;" parent="1" edge="1">
          <mxGeometry width="50" height="50" relative="1" as="geometry">
            <mxPoint x="1115" y="762" as="sourcePoint" />
            <mxPoint x="1115" y="712" as="targetPoint" />
          </mxGeometry>
        </mxCell>
        <mxCell id="9lHVH5dm3nrvYFQcM8Wy-31" value="" style="endArrow=none;html=1;rounded=0;" parent="1" edge="1">
          <mxGeometry width="50" height="50" relative="1" as="geometry">
            <mxPoint x="824.4300000000001" y="762" as="sourcePoint" />
            <mxPoint x="824.4300000000001" y="712" as="targetPoint" />
          </mxGeometry>
        </mxCell>
        <mxCell id="9lHVH5dm3nrvYFQcM8Wy-32" value="" style="endArrow=classic;html=1;rounded=0;" parent="1" edge="1">
          <mxGeometry width="50" height="50" relative="1" as="geometry">
            <mxPoint x="825" y="762" as="sourcePoint" />
            <mxPoint x="910" y="762" as="targetPoint" />
          </mxGeometry>
        </mxCell>
        <mxCell id="9lHVH5dm3nrvYFQcM8Wy-33" value="" style="endArrow=classic;html=1;rounded=0;" parent="1" edge="1">
          <mxGeometry width="50" height="50" relative="1" as="geometry">
            <mxPoint x="1115" y="762" as="sourcePoint" />
            <mxPoint x="1031" y="762" as="targetPoint" />
          </mxGeometry>
        </mxCell>
        <mxCell id="9lHVH5dm3nrvYFQcM8Wy-45" style="edgeStyle=orthogonalEdgeStyle;rounded=0;orthogonalLoop=1;jettySize=auto;html=1;" parent="1" source="9lHVH5dm3nrvYFQcM8Wy-42" edge="1">
          <mxGeometry relative="1" as="geometry">
            <mxPoint x="1055" y="427" as="targetPoint" />
          </mxGeometry>
        </mxCell>
        <mxCell id="9lHVH5dm3nrvYFQcM8Wy-48" value="NO" style="edgeLabel;html=1;align=center;verticalAlign=middle;resizable=0;points=[];" parent="9lHVH5dm3nrvYFQcM8Wy-45" vertex="1" connectable="0">
          <mxGeometry x="-0.4359" y="1" relative="1" as="geometry">
            <mxPoint as="offset" />
          </mxGeometry>
        </mxCell>
        <mxCell id="9lHVH5dm3nrvYFQcM8Wy-55" style="edgeStyle=orthogonalEdgeStyle;rounded=0;orthogonalLoop=1;jettySize=auto;html=1;entryX=0.487;entryY=0;entryDx=0;entryDy=0;entryPerimeter=0;" parent="1" source="9lHVH5dm3nrvYFQcM8Wy-42" target="9lHVH5dm3nrvYFQcM8Wy-7" edge="1">
          <mxGeometry relative="1" as="geometry">
            <Array as="points">
              <mxPoint x="972" y="487" />
            </Array>
          </mxGeometry>
        </mxCell>
        <mxCell id="9lHVH5dm3nrvYFQcM8Wy-56" value="YES" style="edgeLabel;html=1;align=center;verticalAlign=middle;resizable=0;points=[];" parent="9lHVH5dm3nrvYFQcM8Wy-55" vertex="1" connectable="0">
          <mxGeometry x="-0.3196" relative="1" as="geometry">
            <mxPoint as="offset" />
          </mxGeometry>
        </mxCell>
        <mxCell id="9lHVH5dm3nrvYFQcM8Wy-42" value="&lt;span style=&quot;font-size: 8px;&quot;&gt;SNACK?&lt;/span&gt;" style="rhombus;whiteSpace=wrap;html=1;fillColor=#f8cecc;gradientColor=#ea6b66;strokeColor=#b85450;" parent="1" vertex="1">
          <mxGeometry x="932" y="387" width="80" height="80" as="geometry" />
        </mxCell>
        <mxCell id="9lHVH5dm3nrvYFQcM8Wy-20" style="edgeStyle=orthogonalEdgeStyle;rounded=0;orthogonalLoop=1;jettySize=auto;html=1;entryX=0.5;entryY=0;entryDx=0;entryDy=0;" parent="1" source="9lHVH5dm3nrvYFQcM8Wy-5" target="9lHVH5dm3nrvYFQcM8Wy-42" edge="1">
          <mxGeometry relative="1" as="geometry">
            <mxPoint x="972" y="376" as="targetPoint" />
          </mxGeometry>
        </mxCell>
        <mxCell id="piu1KmxuBdeIRfrjEBOE-1" value="SNACK SYSTEM" style="edgeLabel;html=1;align=center;verticalAlign=middle;resizable=0;points=[];" parent="9lHVH5dm3nrvYFQcM8Wy-20" vertex="1" connectable="0">
          <mxGeometry x="-0.2421" relative="1" as="geometry">
            <mxPoint as="offset" />
          </mxGeometry>
        </mxCell>
        <mxCell id="9lHVH5dm3nrvYFQcM8Wy-47" style="edgeStyle=orthogonalEdgeStyle;rounded=0;orthogonalLoop=1;jettySize=auto;html=1;" parent="1" source="9lHVH5dm3nrvYFQcM8Wy-44" edge="1">
          <mxGeometry relative="1" as="geometry">
            <mxPoint x="1045" y="957" as="targetPoint" />
            <Array as="points">
              <mxPoint x="1185" y="427" />
              <mxPoint x="1185" y="957" />
              <mxPoint x="1045" y="957" />
            </Array>
          </mxGeometry>
        </mxCell>
        <mxCell id="9lHVH5dm3nrvYFQcM8Wy-44" value="&lt;font style=&quot;font-size: 10px;&quot;&gt;snack = 0&lt;/font&gt;" style="rounded=0;whiteSpace=wrap;html=1;" parent="1" vertex="1">
          <mxGeometry x="1057" y="412.5" width="118" height="29" as="geometry" />
        </mxCell>
        <mxCell id="vQt1YtrmRKw6cvNU5Y5X-83" style="edgeStyle=orthogonalEdgeStyle;rounded=0;orthogonalLoop=1;jettySize=auto;html=1;" parent="1" edge="1">
          <mxGeometry relative="1" as="geometry">
            <mxPoint x="965" y="1190" as="targetPoint" />
            <mxPoint x="965" y="1146" as="sourcePoint" />
          </mxGeometry>
        </mxCell>
        <mxCell id="vQt1YtrmRKw6cvNU5Y5X-59" value="&lt;div style=&quot;&quot;&gt;&lt;span style=&quot;background-color: initial;&quot;&gt;STORE TICKET CHARGES (COVER CHARGES AND DISCOUNT INCLUDED)&lt;/span&gt;&lt;/div&gt;&lt;div style=&quot;&quot;&gt;&lt;span style=&quot;background-color: initial;&quot;&gt;STORE SNACK CHARGES&lt;/span&gt;&lt;/div&gt;&lt;div style=&quot;&quot;&gt;&lt;span style=&quot;background-color: initial;&quot;&gt;STORE VALET PARK CHARGE&lt;/span&gt;&lt;/div&gt;" style="rounded=1;whiteSpace=wrap;html=1;align=center;fillColor=#f5f5f5;gradientColor=#b3b3b3;strokeColor=#666666;" parent="1" vertex="1">
          <mxGeometry x="832.5" y="1046" width="275" height="100" as="geometry" />
        </mxCell>
        <mxCell id="vQt1YtrmRKw6cvNU5Y5X-87" style="edgeStyle=orthogonalEdgeStyle;rounded=0;orthogonalLoop=1;jettySize=auto;html=1;entryX=0.221;entryY=1.009;entryDx=0;entryDy=0;entryPerimeter=0;" parent="1" source="piu1KmxuBdeIRfrjEBOE-82" target="vQt1YtrmRKw6cvNU5Y5X-59" edge="1">
          <mxGeometry relative="1" as="geometry">
            <Array as="points">
              <mxPoint x="414" y="1230" />
              <mxPoint x="893" y="1230" />
            </Array>
          </mxGeometry>
        </mxCell>
        <mxCell id="YDbfQsRCEKIfb_wyseGa-14" style="edgeStyle=orthogonalEdgeStyle;rounded=0;orthogonalLoop=1;jettySize=auto;html=1;" parent="1" source="YDbfQsRCEKIfb_wyseGa-6" edge="1">
          <mxGeometry relative="1" as="geometry">
            <mxPoint x="1408" y="480" as="targetPoint" />
          </mxGeometry>
        </mxCell>
        <mxCell id="YDbfQsRCEKIfb_wyseGa-19" value="MUSICAL" style="edgeLabel;html=1;align=center;verticalAlign=middle;resizable=0;points=[];" parent="YDbfQsRCEKIfb_wyseGa-14" vertex="1" connectable="0">
          <mxGeometry x="-0.4372" y="1" relative="1" as="geometry">
            <mxPoint as="offset" />
          </mxGeometry>
        </mxCell>
        <mxCell id="YDbfQsRCEKIfb_wyseGa-15" style="edgeStyle=orthogonalEdgeStyle;rounded=0;orthogonalLoop=1;jettySize=auto;html=1;" parent="1" source="YDbfQsRCEKIfb_wyseGa-6" edge="1">
          <mxGeometry relative="1" as="geometry">
            <mxPoint x="1689" y="480" as="targetPoint" />
          </mxGeometry>
        </mxCell>
        <mxCell id="YDbfQsRCEKIfb_wyseGa-18" value="THEATRE" style="edgeLabel;html=1;align=center;verticalAlign=middle;resizable=0;points=[];" parent="YDbfQsRCEKIfb_wyseGa-15" vertex="1" connectable="0">
          <mxGeometry x="-0.4982" relative="1" as="geometry">
            <mxPoint as="offset" />
          </mxGeometry>
        </mxCell>
        <mxCell id="YDbfQsRCEKIfb_wyseGa-6" value="&lt;span style=&quot;font-size: 8px;&quot;&gt;MUSICAL OR THEATRE?&lt;/span&gt;" style="rhombus;whiteSpace=wrap;html=1;fillColor=#f8cecc;strokeColor=#b85450;gradientColor=#ea6b66;" parent="1" vertex="1">
          <mxGeometry x="1495" y="390" width="80" height="80" as="geometry" />
        </mxCell>
        <mxCell id="YDbfQsRCEKIfb_wyseGa-20" style="edgeStyle=orthogonalEdgeStyle;rounded=0;orthogonalLoop=1;jettySize=auto;html=1;" parent="1" source="YDbfQsRCEKIfb_wyseGa-8" edge="1">
          <mxGeometry relative="1" as="geometry">
            <mxPoint x="1335" y="571" as="targetPoint" />
          </mxGeometry>
        </mxCell>
        <mxCell id="YDbfQsRCEKIfb_wyseGa-21" style="edgeStyle=orthogonalEdgeStyle;rounded=0;orthogonalLoop=1;jettySize=auto;html=1;exitX=1;exitY=0.5;exitDx=0;exitDy=0;" parent="1" source="YDbfQsRCEKIfb_wyseGa-8" edge="1">
          <mxGeometry relative="1" as="geometry">
            <mxPoint x="1487.47" y="571" as="targetPoint" />
            <Array as="points">
              <mxPoint x="1487" y="521" />
            </Array>
            <mxPoint x="1455" y="521" as="sourcePoint" />
          </mxGeometry>
        </mxCell>
        <mxCell id="YDbfQsRCEKIfb_wyseGa-8" value="&lt;span style=&quot;font-size: 8px;&quot;&gt;MATINÉE OR EVENING?&lt;/span&gt;" style="rhombus;whiteSpace=wrap;html=1;" parent="1" vertex="1">
          <mxGeometry x="1368" y="481" width="80" height="80" as="geometry" />
        </mxCell>
        <mxCell id="YDbfQsRCEKIfb_wyseGa-9" value="&lt;span style=&quot;font-size: 8px;&quot;&gt;MATINÉE OR EVENING?&lt;/span&gt;" style="rhombus;whiteSpace=wrap;html=1;" parent="1" vertex="1">
          <mxGeometry x="1649" y="481" width="80" height="80" as="geometry" />
        </mxCell>
        <mxCell id="YDbfQsRCEKIfb_wyseGa-10" value="&lt;span style=&quot;font-size: 10px;&quot;&gt;Unit price = $70.00&lt;/span&gt;" style="rounded=0;whiteSpace=wrap;html=1;" parent="1" vertex="1">
          <mxGeometry x="1285" y="573" width="118" height="29" as="geometry" />
        </mxCell>
        <mxCell id="YDbfQsRCEKIfb_wyseGa-11" value="&lt;span style=&quot;font-size: 10px;&quot;&gt;Unit price = $150.00&lt;/span&gt;" style="rounded=0;whiteSpace=wrap;html=1;" parent="1" vertex="1">
          <mxGeometry x="1415" y="573" width="118" height="29" as="geometry" />
        </mxCell>
        <mxCell id="YDbfQsRCEKIfb_wyseGa-12" value="&lt;span style=&quot;font-size: 10px;&quot;&gt;Unit price = $55.00&lt;/span&gt;" style="rounded=0;whiteSpace=wrap;html=1;" parent="1" vertex="1">
          <mxGeometry x="1565" y="573" width="118" height="29" as="geometry" />
        </mxCell>
        <mxCell id="YDbfQsRCEKIfb_wyseGa-13" value="&lt;span style=&quot;font-size: 10px;&quot;&gt;Unit price = $115.00&lt;/span&gt;" style="rounded=0;whiteSpace=wrap;html=1;" parent="1" vertex="1">
          <mxGeometry x="1697" y="573" width="118" height="29" as="geometry" />
        </mxCell>
        <mxCell id="vQt1YtrmRKw6cvNU5Y5X-1" value="&lt;font style=&quot;font-size: 8px;&quot;&gt;MATINÉE&lt;/font&gt;" style="text;html=1;align=center;verticalAlign=middle;resizable=0;points=[];autosize=1;strokeColor=none;fillColor=none;" parent="1" vertex="1">
          <mxGeometry x="1321" y="501" width="60" height="30" as="geometry" />
        </mxCell>
        <mxCell id="vQt1YtrmRKw6cvNU5Y5X-8" style="edgeStyle=orthogonalEdgeStyle;rounded=0;orthogonalLoop=1;jettySize=auto;html=1;" parent="1" edge="1">
          <mxGeometry relative="1" as="geometry">
            <mxPoint x="1607" y="571" as="targetPoint" />
            <mxPoint x="1649.5" y="516.0285714285714" as="sourcePoint" />
            <Array as="points">
              <mxPoint x="1649" y="521" />
              <mxPoint x="1607" y="521" />
            </Array>
          </mxGeometry>
        </mxCell>
        <mxCell id="vQt1YtrmRKw6cvNU5Y5X-2" value="&lt;font style=&quot;font-size: 8px;&quot;&gt;MATINÉE&lt;/font&gt;" style="text;html=1;align=center;verticalAlign=middle;resizable=0;points=[];autosize=1;strokeColor=none;fillColor=none;" parent="1" vertex="1">
          <mxGeometry x="1598" y="501" width="60" height="30" as="geometry" />
        </mxCell>
        <mxCell id="vQt1YtrmRKw6cvNU5Y5X-3" value="&lt;font style=&quot;font-size: 8px;&quot;&gt;EVENING&lt;/font&gt;" style="text;html=1;align=center;verticalAlign=middle;resizable=0;points=[];autosize=1;strokeColor=none;fillColor=none;" parent="1" vertex="1">
          <mxGeometry x="1435" y="501" width="60" height="30" as="geometry" />
        </mxCell>
        <mxCell id="vQt1YtrmRKw6cvNU5Y5X-7" style="edgeStyle=orthogonalEdgeStyle;rounded=0;orthogonalLoop=1;jettySize=auto;html=1;" parent="1" edge="1">
          <mxGeometry relative="1" as="geometry">
            <mxPoint x="1776" y="571" as="targetPoint" />
            <mxPoint x="1729" y="521.0285714285714" as="sourcePoint" />
          </mxGeometry>
        </mxCell>
        <mxCell id="vQt1YtrmRKw6cvNU5Y5X-6" value="&lt;font style=&quot;font-size: 8px;&quot;&gt;EVENING&lt;/font&gt;" style="text;html=1;align=center;verticalAlign=middle;resizable=0;points=[];autosize=1;strokeColor=none;fillColor=none;" parent="1" vertex="1">
          <mxGeometry x="1718" y="501" width="60" height="30" as="geometry" />
        </mxCell>
        <mxCell id="vQt1YtrmRKw6cvNU5Y5X-9" value="&lt;font style=&quot;font-size: 10px;&quot;&gt;DISPLAY SELECTED TICKET PRICE&lt;/font&gt;" style="rounded=0;whiteSpace=wrap;html=1;" parent="1" vertex="1">
          <mxGeometry x="1485" y="641" width="118" height="29" as="geometry" />
        </mxCell>
        <mxCell id="vQt1YtrmRKw6cvNU5Y5X-11" style="edgeStyle=orthogonalEdgeStyle;rounded=0;orthogonalLoop=1;jettySize=auto;html=1;entryX=0;entryY=0.5;entryDx=0;entryDy=0;" parent="1" source="YDbfQsRCEKIfb_wyseGa-10" target="vQt1YtrmRKw6cvNU5Y5X-9" edge="1">
          <mxGeometry relative="1" as="geometry">
            <Array as="points">
              <mxPoint x="1344" y="656" />
              <mxPoint x="1444" y="656" />
            </Array>
          </mxGeometry>
        </mxCell>
        <mxCell id="vQt1YtrmRKw6cvNU5Y5X-12" style="edgeStyle=orthogonalEdgeStyle;rounded=0;orthogonalLoop=1;jettySize=auto;html=1;entryX=0.25;entryY=0;entryDx=0;entryDy=0;" parent="1" source="YDbfQsRCEKIfb_wyseGa-11" target="vQt1YtrmRKw6cvNU5Y5X-9" edge="1">
          <mxGeometry relative="1" as="geometry" />
        </mxCell>
        <mxCell id="vQt1YtrmRKw6cvNU5Y5X-13" style="edgeStyle=orthogonalEdgeStyle;rounded=0;orthogonalLoop=1;jettySize=auto;html=1;entryX=0.8;entryY=0;entryDx=0;entryDy=0;entryPerimeter=0;" parent="1" source="YDbfQsRCEKIfb_wyseGa-12" target="vQt1YtrmRKw6cvNU5Y5X-9" edge="1">
          <mxGeometry relative="1" as="geometry">
            <Array as="points">
              <mxPoint x="1625" y="622" />
              <mxPoint x="1579" y="622" />
            </Array>
          </mxGeometry>
        </mxCell>
        <mxCell id="vQt1YtrmRKw6cvNU5Y5X-14" style="edgeStyle=orthogonalEdgeStyle;rounded=0;orthogonalLoop=1;jettySize=auto;html=1;entryX=1;entryY=0.5;entryDx=0;entryDy=0;" parent="1" source="YDbfQsRCEKIfb_wyseGa-13" target="vQt1YtrmRKw6cvNU5Y5X-9" edge="1">
          <mxGeometry relative="1" as="geometry">
            <Array as="points">
              <mxPoint x="1756" y="656" />
              <mxPoint x="1650" y="656" />
            </Array>
          </mxGeometry>
        </mxCell>
        <mxCell id="Ua3LDJrAK-iYw0dEm0jb-1" style="edgeStyle=orthogonalEdgeStyle;rounded=0;orthogonalLoop=1;jettySize=auto;html=1;" edge="1" parent="1" source="vQt1YtrmRKw6cvNU5Y5X-15" target="vQt1YtrmRKw6cvNU5Y5X-32">
          <mxGeometry relative="1" as="geometry">
            <Array as="points">
              <mxPoint x="1570" y="770" />
              <mxPoint x="1739" y="770" />
            </Array>
          </mxGeometry>
        </mxCell>
        <mxCell id="vQt1YtrmRKw6cvNU5Y5X-15" value="&lt;span style=&quot;font-size: 10px;&quot;&gt;input number of seniors&lt;br&gt;input number of children&lt;br&gt;input number of adults&lt;br&gt;&lt;/span&gt;" style="rounded=0;whiteSpace=wrap;html=1;" parent="1" vertex="1">
          <mxGeometry x="1485" y="700" width="118" height="50" as="geometry" />
        </mxCell>
        <mxCell id="vQt1YtrmRKw6cvNU5Y5X-16" style="edgeStyle=orthogonalEdgeStyle;rounded=0;orthogonalLoop=1;jettySize=auto;html=1;entryX=0.5;entryY=0;entryDx=0;entryDy=0;" parent="1" source="vQt1YtrmRKw6cvNU5Y5X-9" target="vQt1YtrmRKw6cvNU5Y5X-15" edge="1">
          <mxGeometry relative="1" as="geometry" />
        </mxCell>
        <mxCell id="vQt1YtrmRKw6cvNU5Y5X-17" value="&lt;span style=&quot;font-size: 8px;&quot;&gt;CALCULATE &lt;br&gt;COVER&lt;br&gt;CHARGES&lt;br&gt;&lt;/span&gt;" style="rhombus;whiteSpace=wrap;html=1;fillColor=#f8cecc;gradientColor=#ea6b66;strokeColor=#b85450;" parent="1" vertex="1">
          <mxGeometry x="1352" y="800" width="80" height="80" as="geometry" />
        </mxCell>
        <mxCell id="vQt1YtrmRKw6cvNU5Y5X-18" style="edgeStyle=orthogonalEdgeStyle;rounded=0;orthogonalLoop=1;jettySize=auto;html=1;entryX=0.5;entryY=0;entryDx=0;entryDy=0;" parent="1" source="vQt1YtrmRKw6cvNU5Y5X-15" target="vQt1YtrmRKw6cvNU5Y5X-17" edge="1">
          <mxGeometry relative="1" as="geometry">
            <Array as="points">
              <mxPoint x="1520" y="770" />
              <mxPoint x="1392" y="770" />
            </Array>
          </mxGeometry>
        </mxCell>
        <mxCell id="vQt1YtrmRKw6cvNU5Y5X-19" value="&lt;span style=&quot;font-size: 10px;&quot;&gt;senior charge = $1.50&lt;/span&gt;" style="rounded=0;whiteSpace=wrap;html=1;" parent="1" vertex="1">
          <mxGeometry x="1251" y="890" width="82" height="40" as="geometry" />
        </mxCell>
        <mxCell id="vQt1YtrmRKw6cvNU5Y5X-25" style="edgeStyle=orthogonalEdgeStyle;rounded=0;orthogonalLoop=1;jettySize=auto;html=1;entryX=0.5;entryY=0;entryDx=0;entryDy=0;" parent="1" source="vQt1YtrmRKw6cvNU5Y5X-17" target="vQt1YtrmRKw6cvNU5Y5X-19" edge="1">
          <mxGeometry relative="1" as="geometry" />
        </mxCell>
        <mxCell id="vQt1YtrmRKw6cvNU5Y5X-20" value="&lt;span style=&quot;font-size: 10px;&quot;&gt;adult charge = $4.00&lt;/span&gt;" style="rounded=0;whiteSpace=wrap;html=1;" parent="1" vertex="1">
          <mxGeometry x="1352" y="910" width="82" height="40" as="geometry" />
        </mxCell>
        <mxCell id="vQt1YtrmRKw6cvNU5Y5X-23" style="edgeStyle=orthogonalEdgeStyle;rounded=0;orthogonalLoop=1;jettySize=auto;html=1;entryX=0.5;entryY=0;entryDx=0;entryDy=0;" parent="1" source="vQt1YtrmRKw6cvNU5Y5X-17" target="vQt1YtrmRKw6cvNU5Y5X-20" edge="1">
          <mxGeometry relative="1" as="geometry" />
        </mxCell>
        <mxCell id="vQt1YtrmRKw6cvNU5Y5X-21" value="&lt;span style=&quot;font-size: 10px;&quot;&gt;child charge = $0.75&lt;/span&gt;" style="rounded=0;whiteSpace=wrap;html=1;" parent="1" vertex="1">
          <mxGeometry x="1451" y="890" width="82" height="40" as="geometry" />
        </mxCell>
        <mxCell id="vQt1YtrmRKw6cvNU5Y5X-24" style="edgeStyle=orthogonalEdgeStyle;rounded=0;orthogonalLoop=1;jettySize=auto;html=1;entryX=0.5;entryY=0;entryDx=0;entryDy=0;" parent="1" source="vQt1YtrmRKw6cvNU5Y5X-17" target="vQt1YtrmRKw6cvNU5Y5X-21" edge="1">
          <mxGeometry relative="1" as="geometry" />
        </mxCell>
        <mxCell id="Ua3LDJrAK-iYw0dEm0jb-3" style="edgeStyle=orthogonalEdgeStyle;rounded=0;orthogonalLoop=1;jettySize=auto;html=1;entryX=1;entryY=0.5;entryDx=0;entryDy=0;" edge="1" parent="1" source="vQt1YtrmRKw6cvNU5Y5X-26" target="vQt1YtrmRKw6cvNU5Y5X-59">
          <mxGeometry relative="1" as="geometry">
            <Array as="points">
              <mxPoint x="1393" y="1096" />
            </Array>
          </mxGeometry>
        </mxCell>
        <mxCell id="vQt1YtrmRKw6cvNU5Y5X-26" value="&lt;span style=&quot;font-size: 10px;&quot;&gt;TOTAL COVER CHARGES&lt;/span&gt;" style="rounded=0;whiteSpace=wrap;html=1;" parent="1" vertex="1">
          <mxGeometry x="1334" y="980" width="118" height="29" as="geometry" />
        </mxCell>
        <mxCell id="vQt1YtrmRKw6cvNU5Y5X-31" style="edgeStyle=orthogonalEdgeStyle;rounded=0;orthogonalLoop=1;jettySize=auto;html=1;" parent="1" source="vQt1YtrmRKw6cvNU5Y5X-19" target="vQt1YtrmRKw6cvNU5Y5X-26" edge="1">
          <mxGeometry relative="1" as="geometry">
            <Array as="points">
              <mxPoint x="1293" y="955" />
              <mxPoint x="1353" y="955" />
            </Array>
          </mxGeometry>
        </mxCell>
        <mxCell id="vQt1YtrmRKw6cvNU5Y5X-29" style="edgeStyle=orthogonalEdgeStyle;rounded=0;orthogonalLoop=1;jettySize=auto;html=1;entryX=0.5;entryY=0;entryDx=0;entryDy=0;" parent="1" source="vQt1YtrmRKw6cvNU5Y5X-20" target="vQt1YtrmRKw6cvNU5Y5X-26" edge="1">
          <mxGeometry relative="1" as="geometry" />
        </mxCell>
        <mxCell id="vQt1YtrmRKw6cvNU5Y5X-30" style="edgeStyle=orthogonalEdgeStyle;rounded=0;orthogonalLoop=1;jettySize=auto;html=1;entryX=0.871;entryY=-0.053;entryDx=0;entryDy=0;entryPerimeter=0;" parent="1" source="vQt1YtrmRKw6cvNU5Y5X-21" target="vQt1YtrmRKw6cvNU5Y5X-26" edge="1">
          <mxGeometry relative="1" as="geometry" />
        </mxCell>
        <mxCell id="vQt1YtrmRKw6cvNU5Y5X-41" style="edgeStyle=orthogonalEdgeStyle;rounded=0;orthogonalLoop=1;jettySize=auto;html=1;" parent="1" source="vQt1YtrmRKw6cvNU5Y5X-32" edge="1">
          <mxGeometry relative="1" as="geometry">
            <mxPoint x="1739" y="910" as="targetPoint" />
          </mxGeometry>
        </mxCell>
        <mxCell id="vQt1YtrmRKw6cvNU5Y5X-32" value="&lt;span style=&quot;font-size: 8px;&quot;&gt;CALCULATE DISCOUNT&lt;/span&gt;" style="rhombus;whiteSpace=wrap;html=1;fillColor=#f8cecc;gradientColor=#ea6b66;strokeColor=#b85450;" parent="1" vertex="1">
          <mxGeometry x="1699" y="800" width="80" height="80" as="geometry" />
        </mxCell>
        <mxCell id="vQt1YtrmRKw6cvNU5Y5X-34" value="&lt;span style=&quot;font-size: 10px;&quot;&gt;PEOPLE = 1&lt;br&gt;discount = 0%&lt;br&gt;&lt;/span&gt;" style="rounded=0;whiteSpace=wrap;html=1;" parent="1" vertex="1">
          <mxGeometry x="1598" y="825" width="72" height="30" as="geometry" />
        </mxCell>
        <mxCell id="vQt1YtrmRKw6cvNU5Y5X-39" style="edgeStyle=orthogonalEdgeStyle;rounded=0;orthogonalLoop=1;jettySize=auto;html=1;entryX=1;entryY=0.5;entryDx=0;entryDy=0;" parent="1" source="vQt1YtrmRKw6cvNU5Y5X-32" target="vQt1YtrmRKw6cvNU5Y5X-34" edge="1">
          <mxGeometry relative="1" as="geometry" />
        </mxCell>
        <mxCell id="vQt1YtrmRKw6cvNU5Y5X-35" value="&lt;span style=&quot;font-size: 10px;&quot;&gt;PEOPLE = 2&lt;br&gt;discount = 5%&lt;br&gt;&lt;/span&gt;" style="rounded=0;whiteSpace=wrap;html=1;" parent="1" vertex="1">
          <mxGeometry x="1618" y="870" width="72" height="30" as="geometry" />
        </mxCell>
        <mxCell id="vQt1YtrmRKw6cvNU5Y5X-36" value="&lt;span style=&quot;font-size: 10px;&quot;&gt;PEOPLE = 4&lt;br&gt;discount = 20%&lt;br&gt;&lt;/span&gt;" style="rounded=0;whiteSpace=wrap;html=1;" parent="1" vertex="1">
          <mxGeometry x="1786" y="870" width="72" height="30" as="geometry" />
        </mxCell>
        <mxCell id="vQt1YtrmRKw6cvNU5Y5X-37" value="&lt;span style=&quot;font-size: 10px;&quot;&gt;PEOPLE = 3&lt;br&gt;discount = 15%&lt;br&gt;&lt;/span&gt;" style="rounded=0;whiteSpace=wrap;html=1;" parent="1" vertex="1">
          <mxGeometry x="1703" y="911" width="72" height="30" as="geometry" />
        </mxCell>
        <mxCell id="vQt1YtrmRKw6cvNU5Y5X-38" value="&lt;span style=&quot;font-size: 10px;&quot;&gt;PEOPLE &amp;gt;= 5&lt;br&gt;discount = 30%&lt;br&gt;&lt;/span&gt;" style="rounded=0;whiteSpace=wrap;html=1;" parent="1" vertex="1">
          <mxGeometry x="1803" y="825" width="72" height="30" as="geometry" />
        </mxCell>
        <mxCell id="vQt1YtrmRKw6cvNU5Y5X-42" style="edgeStyle=orthogonalEdgeStyle;rounded=0;orthogonalLoop=1;jettySize=auto;html=1;entryX=0;entryY=0.5;entryDx=0;entryDy=0;" parent="1" source="vQt1YtrmRKw6cvNU5Y5X-32" target="vQt1YtrmRKw6cvNU5Y5X-38" edge="1">
          <mxGeometry relative="1" as="geometry" />
        </mxCell>
        <mxCell id="vQt1YtrmRKw6cvNU5Y5X-45" value="" style="endArrow=classic;html=1;rounded=0;entryX=1;entryY=0.5;entryDx=0;entryDy=0;" parent="1" target="vQt1YtrmRKw6cvNU5Y5X-35" edge="1">
          <mxGeometry width="50" height="50" relative="1" as="geometry">
            <mxPoint x="1719" y="860" as="sourcePoint" />
            <mxPoint x="1693" y="880" as="targetPoint" />
          </mxGeometry>
        </mxCell>
        <mxCell id="vQt1YtrmRKw6cvNU5Y5X-46" value="" style="endArrow=classic;html=1;rounded=0;entryX=-0.005;entryY=0.567;entryDx=0;entryDy=0;entryPerimeter=0;exitX=0.772;exitY=0.76;exitDx=0;exitDy=0;exitPerimeter=0;" parent="1" source="vQt1YtrmRKw6cvNU5Y5X-32" target="vQt1YtrmRKw6cvNU5Y5X-36" edge="1">
          <mxGeometry width="50" height="50" relative="1" as="geometry">
            <mxPoint x="1770" y="870" as="sourcePoint" />
            <mxPoint x="1741" y="895" as="targetPoint" />
          </mxGeometry>
        </mxCell>
        <mxCell id="Ua3LDJrAK-iYw0dEm0jb-2" style="edgeStyle=orthogonalEdgeStyle;rounded=0;orthogonalLoop=1;jettySize=auto;html=1;" edge="1" parent="1" source="vQt1YtrmRKw6cvNU5Y5X-48" target="vQt1YtrmRKw6cvNU5Y5X-59">
          <mxGeometry relative="1" as="geometry">
            <Array as="points">
              <mxPoint x="1739" y="1120" />
            </Array>
          </mxGeometry>
        </mxCell>
        <mxCell id="vQt1YtrmRKw6cvNU5Y5X-48" value="&lt;font style=&quot;font-size: 10px;&quot;&gt;DISPLAY DISCOUNTS APPLIED&lt;/font&gt;" style="rounded=0;whiteSpace=wrap;html=1;" parent="1" vertex="1">
          <mxGeometry x="1659" y="970" width="160" height="30" as="geometry" />
        </mxCell>
        <mxCell id="vQt1YtrmRKw6cvNU5Y5X-49" style="edgeStyle=orthogonalEdgeStyle;rounded=0;orthogonalLoop=1;jettySize=auto;html=1;entryX=0;entryY=0.5;entryDx=0;entryDy=0;" parent="1" source="vQt1YtrmRKw6cvNU5Y5X-34" target="vQt1YtrmRKw6cvNU5Y5X-48" edge="1">
          <mxGeometry relative="1" as="geometry">
            <Array as="points">
              <mxPoint x="1610" y="985" />
            </Array>
          </mxGeometry>
        </mxCell>
        <mxCell id="vQt1YtrmRKw6cvNU5Y5X-55" style="edgeStyle=orthogonalEdgeStyle;rounded=0;orthogonalLoop=1;jettySize=auto;html=1;entryX=0.039;entryY=-0.04;entryDx=0;entryDy=0;entryPerimeter=0;" parent="1" source="vQt1YtrmRKw6cvNU5Y5X-35" target="vQt1YtrmRKw6cvNU5Y5X-48" edge="1">
          <mxGeometry relative="1" as="geometry" />
        </mxCell>
        <mxCell id="vQt1YtrmRKw6cvNU5Y5X-53" style="edgeStyle=orthogonalEdgeStyle;rounded=0;orthogonalLoop=1;jettySize=auto;html=1;entryX=0.966;entryY=-0.053;entryDx=0;entryDy=0;entryPerimeter=0;" parent="1" source="vQt1YtrmRKw6cvNU5Y5X-36" target="vQt1YtrmRKw6cvNU5Y5X-48" edge="1">
          <mxGeometry relative="1" as="geometry" />
        </mxCell>
        <mxCell id="vQt1YtrmRKw6cvNU5Y5X-52" style="edgeStyle=orthogonalEdgeStyle;rounded=0;orthogonalLoop=1;jettySize=auto;html=1;entryX=0.501;entryY=-0.08;entryDx=0;entryDy=0;entryPerimeter=0;" parent="1" source="vQt1YtrmRKw6cvNU5Y5X-37" target="vQt1YtrmRKw6cvNU5Y5X-48" edge="1">
          <mxGeometry relative="1" as="geometry" />
        </mxCell>
        <mxCell id="vQt1YtrmRKw6cvNU5Y5X-54" style="edgeStyle=orthogonalEdgeStyle;rounded=0;orthogonalLoop=1;jettySize=auto;html=1;entryX=1;entryY=0.5;entryDx=0;entryDy=0;" parent="1" source="vQt1YtrmRKw6cvNU5Y5X-38" target="vQt1YtrmRKw6cvNU5Y5X-48" edge="1">
          <mxGeometry relative="1" as="geometry">
            <Array as="points">
              <mxPoint x="1870" y="985" />
            </Array>
          </mxGeometry>
        </mxCell>
        <mxCell id="Ua3LDJrAK-iYw0dEm0jb-4" value="&lt;b&gt;GROUP MEMBERS&lt;br&gt;&lt;/b&gt;&lt;br&gt;HIRAN BORBA&lt;br&gt;&lt;div style=&quot;text-align: left;&quot;&gt;&lt;span style=&quot;background-color: initial;&quot;&gt;&amp;nbsp; &amp;nbsp; FATIMA BAIG&lt;/span&gt;&lt;/div&gt;&amp;nbsp; &amp;nbsp;ELMAR JAFARLI" style="text;html=1;align=center;verticalAlign=middle;resizable=0;points=[];autosize=1;strokeColor=none;fillColor=none;" vertex="1" parent="1">
          <mxGeometry x="390" y="40" width="130" height="90" as="geometry" />
        </mxCell>
        <mxCell id="Ua3LDJrAK-iYw0dEm0jb-6" value="&lt;h1&gt;SCENARIO 1:&lt;/h1&gt;&lt;p&gt;&lt;font style=&quot;font-size: 14px;&quot;&gt;&lt;span style=&quot;background-color: initial;&quot;&gt;One senior, two adults, and one child go to see the theatre production of “Chewbacca&lt;br&gt;Chew’s the Furniture” at 9:00 PM. T&lt;/span&gt;&lt;span style=&quot;background-color: initial;&quot;&gt;hey opt for the VIP valet treatment (tipping $7.50)&lt;br&gt;and at intermission, indulge themselves with three wines, four bags of chips, and three&lt;br&gt;Sprite soft drinks. What was the total cost?&amp;nbsp;&lt;/span&gt;&lt;/font&gt;&lt;/p&gt;&lt;div title=&quot;Page 5&quot; class=&quot;page&quot;&gt;&lt;div class=&quot;layoutArea&quot;&gt;&lt;div class=&quot;column&quot;&gt;&lt;br&gt;&lt;i style=&quot;border-color: var(--border-color); color: rgb(255, 51, 51); font-size: 19px;&quot;&gt;According the flowchart ($115.00*4)*0.8 + $30.00 + $7.50 + ($7.50*3) + ($1.75*4) + ($2.25*3) + $1.50 + ($4.00*2) + $0.75 =&amp;nbsp;&lt;br&gt;&lt;/i&gt;&lt;/div&gt;&lt;div class=&quot;column&quot;&gt;&lt;i style=&quot;border-color: var(--border-color); color: rgb(255, 51, 51); font-size: 19px;&quot;&gt;&lt;br&gt;&lt;/i&gt;&lt;/div&gt;&lt;div class=&quot;column&quot;&gt;&lt;font color=&quot;#ff3333&quot;&gt;&lt;span style=&quot;font-size: 19px;&quot;&gt;&lt;i&gt;&lt;b&gt;&amp;nbsp; &amp;nbsp; &amp;nbsp; &amp;nbsp; &amp;nbsp; &amp;nbsp; &amp;nbsp; &amp;nbsp; &amp;nbsp; &amp;nbsp; &amp;nbsp; &amp;nbsp; &amp;nbsp; &amp;nbsp; &amp;nbsp;&lt;u&gt;$452.00 TOTAL COST&lt;/u&gt;&lt;/b&gt;&lt;/i&gt;&lt;/span&gt;&lt;/font&gt;&lt;/div&gt;&lt;br&gt;&lt;span style=&quot;&quot;&gt;&amp;nbsp;&amp;nbsp;&amp;nbsp;&amp;nbsp;&lt;/span&gt;&lt;span style=&quot;&quot;&gt;&amp;nbsp;&amp;nbsp;&amp;nbsp;&amp;nbsp;&lt;/span&gt;&lt;span style=&quot;&quot;&gt;&amp;nbsp;&amp;nbsp;&amp;nbsp;&amp;nbsp;&lt;/span&gt;&lt;/div&gt;&lt;br&gt;&lt;span style=&quot;&quot;&gt;&amp;nbsp;&amp;nbsp;&amp;nbsp;&amp;nbsp;&lt;/span&gt;&lt;span style=&quot;&quot;&gt;&amp;nbsp;&amp;nbsp;&amp;nbsp;&amp;nbsp;&lt;/span&gt;&lt;/div&gt;" style="text;html=1;strokeColor=none;fillColor=none;spacing=5;spacingTop=-20;whiteSpace=wrap;overflow=hidden;rounded=0;" vertex="1" parent="1">
          <mxGeometry x="1368" y="1330" width="550" height="240" as="geometry" />
        </mxCell>
        <mxCell id="Ua3LDJrAK-iYw0dEm0jb-7" value="&lt;h1&gt;SCENARIO 2:&lt;/h1&gt;&lt;p&gt;&lt;font style=&quot;font-size: 14px;&quot;&gt;&lt;span style=&quot;background-color: initial;&quot;&gt;&lt;font style=&quot;&quot;&gt;Two adults go to see the musical of “Yoda Sings” at 2:00 PM. They don’t use the valet,&lt;br&gt;&lt;/font&gt;&lt;/span&gt;&lt;span style=&quot;background-color: initial;&quot;&gt;but at intermission, indulge themselves with two wines and two bags of popcorn. What was the total cost?&amp;nbsp;&lt;/span&gt;&lt;/font&gt;&lt;/p&gt;&lt;div title=&quot;Page 5&quot; class=&quot;page&quot;&gt;&lt;div class=&quot;layoutArea&quot;&gt;&lt;div class=&quot;column&quot;&gt;&lt;span style=&quot;white-space: pre;&quot;&gt;&amp;nbsp;&amp;nbsp;&lt;/span&gt;&lt;span style=&quot;white-space: pre;&quot;&gt;&amp;nbsp;&amp;nbsp;&amp;nbsp;&amp;nbsp;&lt;/span&gt;&lt;span style=&quot;white-space: pre;&quot;&gt;&amp;nbsp;&amp;nbsp;&amp;nbsp;&amp;nbsp;&lt;/span&gt;&lt;span style=&quot;white-space: pre;&quot;&gt;&amp;nbsp;&lt;/span&gt;&lt;/div&gt;&lt;/div&gt;&lt;/div&gt;&lt;div title=&quot;Page 5&quot; class=&quot;page&quot;&gt;&lt;div class=&quot;layoutArea&quot;&gt;&lt;div class=&quot;column&quot;&gt;&lt;i style=&quot;border-color: var(--border-color); color: rgb(255, 51, 51); font-size: 19px;&quot;&gt;According the flowchart&amp;nbsp; ($70*2)*0.95 + ($7.50*2) + ($1.75*2) + ($4.00*2) =&amp;nbsp;&lt;/i&gt;&lt;/div&gt;&lt;div class=&quot;column&quot;&gt;&lt;font color=&quot;#ff3333&quot;&gt;&lt;span style=&quot;font-size: 19px;&quot;&gt;&lt;i&gt;&amp;nbsp; &amp;nbsp; &amp;nbsp; &amp;nbsp; &amp;nbsp; &amp;nbsp; &amp;nbsp; &amp;nbsp; &amp;nbsp; &amp;nbsp; &amp;nbsp; &amp;nbsp; &amp;nbsp; &amp;nbsp; &amp;nbsp;&lt;/i&gt;&lt;/span&gt;&lt;/font&gt;&lt;/div&gt;&lt;div class=&quot;column&quot;&gt;&lt;font color=&quot;#ff3333&quot;&gt;&lt;span style=&quot;font-size: 19px;&quot;&gt;&lt;i&gt;&lt;span style=&quot;white-space: pre;&quot;&gt;&#x9;&lt;/span&gt;&lt;span style=&quot;white-space: pre;&quot;&gt;&#x9;&lt;/span&gt;&lt;span style=&quot;white-space: pre;&quot;&gt;&#x9;&lt;/span&gt;&lt;span style=&quot;white-space: pre;&quot;&gt;&#x9;&lt;/span&gt;&lt;b&gt;&lt;u&gt;$159.50 TOTAL COST&lt;/u&gt;&lt;/b&gt;&lt;/i&gt;&lt;/span&gt;&lt;/font&gt;&lt;/div&gt;&lt;br&gt;&lt;span style=&quot;&quot;&gt;&amp;nbsp;&amp;nbsp;&amp;nbsp;&amp;nbsp;&lt;/span&gt;&lt;span style=&quot;&quot;&gt;&amp;nbsp;&amp;nbsp;&amp;nbsp;&amp;nbsp;&lt;/span&gt;&lt;span style=&quot;&quot;&gt;&amp;nbsp;&amp;nbsp;&amp;nbsp;&amp;nbsp;&lt;/span&gt;&lt;/div&gt;&lt;br&gt;&lt;span style=&quot;&quot;&gt;&amp;nbsp;&amp;nbsp;&amp;nbsp;&amp;nbsp;&lt;/span&gt;&lt;span style=&quot;&quot;&gt;&amp;nbsp;&amp;nbsp;&amp;nbsp;&amp;nbsp;&lt;/span&gt;&lt;/div&gt;" style="text;html=1;strokeColor=none;fillColor=none;spacing=5;spacingTop=-20;whiteSpace=wrap;overflow=hidden;rounded=0;" vertex="1" parent="1">
          <mxGeometry x="1368" y="1610" width="550" height="240" as="geometry" />
        </mxCell>
      </root>
    </mxGraphModel>
  </diagram>
</mxfile>
